<?xml version="1.0" encoding="UTF-8"?>
<!DOCTYPE svg PUBLIC "-//W3C//DTD SVG 1.1//EN" "http://www.w3.org/Graphics/SVG/1.1/DTD/svg11.dtd">
<!-- Creator: CorelDRAW 2020 (64-Bit) -->
<svg xmlns="http://www.w3.org/2000/svg" xml:space="preserve" width="81.4158mm" height="61.4536mm" version="1.1" style="shape-rendering:geometricPrecision; text-rendering:geometricPrecision; image-rendering:optimizeQuality; fill-rule:evenodd; clip-rule:evenodd"
viewBox="0 0 3068.81 2316.37"
 xmlns:xlink="http://www.w3.org/1999/xlink"
 xmlns:xodm="http://www.corel.com/coreldraw/odm/2003">
 <defs>
  <style type="text/css">
   <![CDATA[
    .fil2 {fill:black;fill-rule:nonzero}
    .fil3 {fill:black;fill-rule:nonzero}
    .fil0 {fill:#00AEEF;fill-rule:nonzero}
    .fil1 {fill:white;fill-rule:nonzero}
   ]]>
  </style>
 </defs>
 <g id="Capa_x0020_1">
  <metadata id="CorelCorpID_0Corel-Layer"/>
  <g id="_1627444169664">
   <g>
    <g id="XMLID_15_">
     <g id="XMLID_142_">
      <path id="XMLID_145_" class="fil0" d="M1549.57 112.93c-386.31,0 -723.61,209.55 -904.6,521.19l-128.53 0c191.3,-376.35 582.02,-634.13 1033.13,-634.13 451.02,0 841.83,257.87 1033.13,634.13l-128.53 0c-180.99,-311.64 -518.29,-521.19 -904.6,-521.19z"/>
      <path id="XMLID_144_" class="fil0" d="M1549.57 338.62c-253.28,0 -479.76,114.96 -630.07,295.51l-141.85 0c167.85,-246.75 450.93,-408.88 771.92,-408.88 320.99,0 604.07,162.13 771.92,408.88l-141.85 0c-150.31,-180.55 -376.79,-295.51 -630.07,-295.51z"/>
      <path id="XMLID_143_" class="fil1" d="M777.65 634.13c167.85,-246.75 450.93,-408.88 771.92,-408.88 320.99,0 604.07,162.13 771.92,408.88l132.68 0c-180.9,-311.64 -518.29,-521.19 -904.6,-521.19 -386.31,0 -723.6,209.55 -904.6,521.19l132.68 0z"/>
     </g>
     <g id="XMLID_92_">
      <g id="XMLID_96_">
       <polygon id="XMLID_135_" class="fil2" points="313.49,1616.13 191.39,1616.13 -0,1110.54 137.09,1110.54 254.16,1468.99 256.98,1468.99 373.35,1110.54 508.32,1110.54 "/>
       <g id="XMLID_119_">
        <path id="XMLID_132_" class="fil2" d="M796.87 1616.13l-39.32 -99.27 -195.54 0 -37.12 99.27 -132.86 0 212.11 -505.59 118.57 0 209.91 505.59 -135.77 0zm-135.68 -370.62l-64.27 173.5 127.13 0 -62.86 -173.5z"/>
        <polygon id="XMLID_130_" class="fil2" points="960.4,1616.13 960.4,1110.54 1083.21,1110.54 1083.21,1509.72 1278.84,1509.72 1278.84,1616.13 "/>
        <path id="XMLID_127_" class="fil2" d="M1813.08 1361.26c0,40.02 -6.88,76.52 -20.72,109.58 -13.84,33.06 -32.97,61.45 -57.48,84.99 -24.51,23.54 -53.69,41.79 -87.46,54.66 -33.76,12.87 -70.44,19.31 -109.93,19.31 -39.49,0 -76.08,-6.44 -109.58,-19.31 -33.59,-12.87 -62.59,-31.03 -87.1,-54.66 -24.51,-23.54 -43.64,-51.84 -57.48,-84.99 -13.84,-33.06 -20.72,-69.65 -20.72,-109.58 0,-40.47 6.88,-76.97 20.72,-109.59 13.84,-32.62 32.97,-60.3 57.48,-83.22 24.51,-22.83 53.6,-40.47 87.1,-52.81 33.59,-12.34 70.09,-18.61 109.58,-18.61 39.49,0 76.17,6.17 109.93,18.61 33.77,12.34 62.95,29.97 87.46,52.81 24.51,22.83 43.64,50.6 57.48,83.22 13.75,32.53 20.72,69.12 20.72,109.59zm-130.74 0c0,-21.87 -3.61,-42.4 -10.75,-61.45 -7.14,-19.04 -17.01,-35.35 -29.62,-48.93 -12.6,-13.58 -27.86,-24.24 -45.67,-32.18 -17.81,-7.85 -37.47,-11.81 -58.89,-11.81 -21.42,0 -40.91,3.97 -58.54,11.81 -17.63,7.84 -32.88,18.6 -45.67,32.18 -12.78,13.58 -22.74,29.89 -29.62,48.93 -6.88,19.04 -10.31,39.49 -10.31,61.45 0,22.83 3.52,43.9 10.66,63.21 7.14,19.31 17.01,35.79 29.62,49.63 12.6,13.84 27.77,24.59 45.31,32.53 17.63,7.85 37.11,11.81 58.54,11.81 21.42,0 40.9,-3.97 58.54,-11.81 17.63,-7.84 32.88,-18.69 45.67,-32.53 12.87,-13.84 22.83,-30.33 29.97,-49.63 7.23,-19.31 10.75,-40.38 10.75,-63.21z"/>
        <path id="XMLID_124_" class="fil2" d="M2121.55 1616.13l-109.76 -200.65 -41.61 0 0 200.65 -119.28 0 0 -505.59 192.8 0c24.24,0 47.96,2.47 71.06,7.49 23.1,5.02 43.81,13.49 62.15,25.39 18.34,11.9 32.97,27.59 43.9,47.17 10.93,19.48 16.4,43.81 16.4,72.82 0,34.29 -9.25,63.12 -27.86,86.4 -18.6,23.36 -44.26,40.02 -77.14,49.98l132.06 216.34 -142.73 0zm-5.02 -350.61c0,-11.9 -2.56,-21.51 -7.58,-28.92 -5.02,-7.41 -11.46,-13.05 -19.39,-17.1 -7.93,-4.06 -16.75,-6.79 -26.54,-8.2 -9.79,-1.41 -19.22,-2.11 -28.3,-2.11l-65.33 0 0 117.78 58.1 0c10.05,0 20.36,-0.8 30.86,-2.47 10.49,-1.68 20.1,-4.67 28.74,-8.91 8.64,-4.32 15.69,-10.49 21.16,-18.6 5.56,-8.11 8.29,-18.6 8.29,-31.47z"/>
        <polygon id="XMLID_122_" class="fil2" points="2295.75,1616.13 2295.75,1110.54 2635.69,1110.54 2635.69,1213.33 2413.61,1213.33 2413.61,1308.98 2623.52,1308.99 2623.52,1406.84 2413.61,1406.84 2413.61,1511.84 2648.56,1511.84 2648.56,1616.13 "/>
        <path id="XMLID_120_" class="fil2" d="M2991.23 1241.98c-10.49,-13.31 -24.15,-23.89 -41.08,-31.74 -16.92,-7.85 -33.23,-11.81 -48.93,-11.81 -8.11,0 -16.31,0.7 -24.59,2.11 -8.38,1.41 -15.87,4.14 -22.48,8.2 -6.7,4.06 -12.25,9.26 -16.75,15.7 -4.5,6.43 -6.79,14.63 -6.79,24.59 0,8.55 1.76,15.69 5.38,21.42 3.53,5.73 8.82,10.75 15.69,14.99 6.88,4.32 15.08,8.2 24.6,11.81 9.52,3.52 20.19,7.23 32.09,11.11 17.1,5.73 35,11.99 53.6,18.95 18.6,6.88 35.44,16.05 50.69,27.51 15.25,11.46 27.86,25.56 37.82,42.49 9.96,16.92 14.99,38 14.99,63.21 0,29 -5.38,54.13 -16.05,75.37 -10.67,21.16 -25.13,38.7 -43.2,52.45 -18.07,13.84 -38.79,24.07 -62.15,30.68 -23.36,6.7 -47.34,9.96 -72.11,9.96 -36.14,0 -71.14,-6.35 -105,-18.96 -33.76,-12.6 -61.88,-30.59 -84.28,-53.95l79.96 -81.37c12.34,15.25 28.65,27.95 48.93,38.17 20.19,10.23 40.38,15.34 60.3,15.34 9.08,0 17.9,-0.97 26.45,-2.82 8.55,-1.85 16.04,-5.02 22.48,-9.26 6.43,-4.32 11.55,-9.96 15.34,-17.1 3.79,-7.14 5.73,-15.69 5.73,-25.74 0,-9.52 -2.38,-17.63 -7.14,-24.24 -4.76,-6.61 -11.55,-12.7 -20.37,-18.25 -8.82,-5.47 -19.75,-10.49 -32.88,-14.99 -13.14,-4.5 -27.95,-9.43 -44.61,-14.63 -16.22,-5.2 -32,-11.46 -47.52,-18.61 -15.51,-7.14 -29.27,-16.31 -41.44,-27.5 -12.16,-11.19 -21.95,-24.77 -29.27,-40.73 -7.4,-15.96 -11.11,-35.35 -11.11,-58.19 0,-28.12 5.73,-52.1 17.11,-72.11 11.37,-20.01 26.45,-36.41 44.96,-49.28 18.6,-12.87 39.49,-22.22 62.86,-28.21 23.36,-5.91 46.9,-8.9 70.7,-8.9 28.56,0 57.74,5.29 87.45,15.69 29.8,10.49 55.8,25.92 78.2,46.46l-77.58 82.16z"/>
       </g>
       <g id="XMLID_97_">
        <path id="XMLID_116_" class="fil2" d="M687.37 1077.92l-50.08 -149.17 -24.77 0 0 149.17 -81.46 0 0 -374.5 119.81 0c36.23,0 64.36,9.43 84.46,28.3 20.01,18.87 30.06,46.99 30.06,84.37 0,13.75 -1.59,26.09 -4.76,37.03 -3.17,10.93 -7.32,20.28 -12.43,28.03 -5.11,7.76 -10.84,14.1 -17.11,19.04 -6.35,4.94 -12.52,8.46 -18.42,10.58l63.83 167.15 -89.13 0zm-5.02 -257.07c0,-9.52 -1.32,-17.28 -3.97,-23.27 -2.65,-6 -6.08,-10.75 -10.32,-14.28 -4.23,-3.53 -8.9,-5.91 -14.02,-7.14 -5.11,-1.23 -10.14,-1.85 -15.07,-1.85l-26.45 0 0 94.68 24.86 0c11.99,0 22.48,-3.79 31.47,-11.38 8.99,-7.58 13.49,-19.83 13.49,-36.76z"/>
        <polygon id="XMLID_114_" class="fil2" points="820.32,1077.92 820.32,703.42 905.48,703.42 905.48,1077.92 "/>
        <polygon id="XMLID_112_" class="fil2" points="1130.9,1077.92 1044.15,849.94 1042.57,849.94 1044.68,1077.92 969.04,1077.92 969.04,703.42 1062.14,703.42 1148.36,934.57 1149.95,934.57 1148.36,703.42 1221.35,703.42 1221.35,1077.92 "/>
        <path id="XMLID_110_" class="fil2" d="M1471.02 1073.42c-16.57,9.7 -37.73,14.55 -63.48,14.55 -21.86,0 -41.7,-4.85 -59.51,-14.55 -17.81,-9.7 -33.06,-23.27 -45.76,-40.73 -12.7,-17.46 -22.57,-38.26 -29.62,-62.42 -7.06,-24.15 -10.58,-50.69 -10.58,-79.61 0,-29.27 3.52,-56.07 10.58,-80.4 7.05,-24.33 16.92,-45.14 29.62,-62.42 12.7,-17.28 27.95,-30.68 45.76,-40.2 17.81,-9.52 37.64,-14.28 59.51,-14.28 25.04,0 45.93,4.49 62.68,13.49 16.75,8.99 30.24,20.19 40.46,33.59l-45.49 61.36c-6.35,-8.46 -13.49,-15.16 -21.42,-20.1 -7.93,-4.94 -17.9,-7.41 -29.88,-7.41 -11.29,0 -21.07,3 -29.36,8.99 -8.29,5.99 -15.34,14.19 -21.16,24.59 -5.82,10.4 -10.14,22.74 -12.96,37.03 -2.82,14.28 -4.23,29.53 -4.23,45.76 0,16.22 1.41,31.38 4.23,45.49 2.82,14.1 7.14,26.45 12.96,37.03 5.82,10.58 12.96,18.87 21.42,24.86 8.47,6 18.34,8.99 29.62,8.99 11.29,0 21.16,-2.82 29.62,-8.47 8.47,-5.64 15.16,-12.34 20.1,-20.1l47.08 58.71c-10.23,14.46 -23.63,26.54 -40.2,36.23z"/>
        <polygon id="XMLID_108_" class="fil2" points="1548.25,1077.92 1548.25,703.42 1633.41,703.42 1633.41,1077.92 "/>
        <path id="XMLID_105_" class="fil2" d="M1910.05 820.85c0,20.81 -3.17,38.79 -9.52,53.95 -6.35,15.16 -14.81,27.68 -25.39,37.56 -10.58,9.87 -22.57,17.19 -35.97,21.95 -13.4,4.76 -26.98,7.14 -40.73,7.14l-36.49 0 0 136.47 -83.05 0 0 -374.5 116.37 0c13.4,0 26.89,1.94 40.46,5.82 13.58,3.88 25.92,10.32 37.03,19.31 11.11,8.99 20.1,21.07 26.98,36.23 6.88,15.16 10.32,33.85 10.32,56.07zm-79.34 1.59c0,-16.93 -4.06,-29.1 -12.17,-36.5 -8.11,-7.41 -17.99,-11.11 -29.62,-11.11l-26.97 0 0 97.85 26.97 0c11.64,0 21.51,-4.32 29.62,-12.96 8.11,-8.64 12.17,-21.07 12.17,-37.29z"/>
        <path id="XMLID_138_" class="fil2" d="M499.51 820.85c0,20.81 -3.17,38.79 -9.52,53.95 -6.35,15.16 -14.81,27.68 -25.39,37.56 -10.58,9.87 -22.57,17.19 -35.97,21.95 -13.4,4.76 -26.98,7.14 -40.73,7.14l-36.5 0 0 136.47 -83.05 0 0 -374.5 116.37 0c13.4,0 26.89,1.94 40.46,5.82 13.58,3.88 25.92,10.32 37.03,19.31 11.11,8.99 20.1,21.07 26.98,36.23 6.88,15.16 10.32,33.85 10.32,56.07zm-79.34 1.59c0,-16.93 -4.06,-29.1 -12.16,-36.5 -8.11,-7.41 -17.99,-11.11 -29.62,-11.11l-26.98 0 0 97.85 26.98 0c11.64,0 21.51,-4.32 29.62,-12.96 8.11,-8.64 12.16,-21.07 12.16,-37.29z"/>
        <polygon id="XMLID_103_" class="fil2" points="1944.43,1077.92 1944.43,703.42 2029.59,703.42 2029.59,1077.92 "/>
        <path id="XMLID_100_" class="fil2" d="M2347.5 889.61c0,29.62 -3.35,56.69 -10.05,81.19 -6.7,24.51 -16.22,45.4 -28.56,62.68 -12.34,17.28 -27.42,30.68 -45.23,40.2 -17.81,9.52 -37.82,14.28 -60.03,14.28 -22.22,0 -42.23,-4.76 -60.04,-14.28 -17.81,-9.52 -32.88,-22.92 -45.22,-40.2 -12.34,-17.28 -21.86,-38.17 -28.56,-62.68 -6.7,-24.51 -10.05,-51.57 -10.05,-81.19 0,-29.62 3.26,-56.51 9.79,-80.66 6.52,-24.16 15.96,-44.79 28.3,-61.89 12.34,-17.1 27.42,-30.33 45.23,-39.67 17.81,-9.34 37.99,-14.02 60.56,-14.02 22.22,0 42.23,4.67 60.04,14.02 17.81,9.34 32.88,22.57 45.22,39.67 12.34,17.1 21.87,37.73 28.56,61.89 6.7,24.15 10.05,51.04 10.05,80.66zm-86.75 0c0,-16.22 -1.23,-31.29 -3.7,-45.22 -2.47,-13.93 -6.08,-26.01 -10.84,-36.23 -4.76,-10.23 -10.67,-18.25 -17.72,-24.07 -7.05,-5.82 -15.34,-8.73 -24.86,-8.73 -9.52,0 -17.9,2.91 -25.13,8.73 -7.23,5.82 -13.22,13.84 -17.98,24.07 -4.76,10.23 -8.29,22.31 -10.58,36.23 -2.29,13.93 -3.44,29 -3.44,45.22 0,16.22 1.15,31.39 3.44,45.49 2.29,14.1 5.82,26.27 10.58,36.5 4.76,10.23 10.75,18.34 17.98,24.33 7.23,6 15.6,8.99 25.13,8.99 9.52,0 17.81,-3 24.86,-8.99 7.05,-5.99 12.96,-14.1 17.72,-24.33 4.76,-10.23 8.38,-22.39 10.84,-36.5 2.47,-14.1 3.7,-29.27 3.7,-45.49z"/>
        <path id="XMLID_98_" class="fil2" d="M2543.21 792.81c-6.35,-7.41 -13.75,-13.14 -22.21,-17.19 -8.47,-4.06 -17.28,-6.08 -26.45,-6.08 -9.52,0 -18.07,3 -25.65,8.99 -7.58,5.99 -11.37,15.87 -11.37,29.71 0,11.64 3.88,20.72 11.64,27.24 7.76,6.52 19.22,13.66 34.38,21.42 8.55,4.23 17.46,9.26 26.89,15.08 9.43,5.82 17.99,12.96 25.83,21.42 7.76,8.47 14.28,18.61 19.48,30.5 5.11,11.81 7.76,25.92 7.76,42.14 0,20.1 -3.17,37.91 -9.61,53.25 -6.35,15.34 -14.99,28.12 -25.83,38.17 -10.84,10.05 -23.36,17.63 -37.47,22.75 -14.2,5.11 -28.83,7.67 -43.99,7.67 -22.57,0 -43.11,-4.23 -61.62,-12.7 -18.51,-8.46 -33.41,-18.33 -44.7,-29.62l43.37 -63.48c8.11,8.46 17.46,15.25 28.04,20.37 10.58,5.11 21.33,7.67 32.27,7.67 10.23,0 18.87,-3.35 25.92,-10.05 7.05,-6.7 10.58,-16.05 10.58,-28.04 0,-12.34 -4.23,-22.13 -12.7,-29.36 -8.46,-7.23 -20.8,-14.9 -37.03,-23.01 -10.23,-4.93 -19.83,-10.4 -28.83,-16.4 -8.99,-6 -16.92,-13.22 -23.8,-21.68 -6.88,-8.47 -12.25,-18.34 -16.13,-29.62 -3.88,-11.29 -5.82,-24.69 -5.82,-40.2 0,-20.81 3.44,-38.7 10.31,-53.69 6.88,-14.99 15.87,-27.24 26.98,-36.76 11.11,-9.52 23.45,-16.57 37.03,-21.16 13.58,-4.58 27.24,-6.88 40.99,-6.88 20.45,0 38.79,3.35 55.01,9.96 16.22,6.61 29.8,15.78 40.73,27.33l-44 62.24z"/>
       </g>
      </g>
      <g id="XMLID_93_">
       <polygon id="XMLID_94_" class="fil2" points="2806.27,928.23 2806.27,1077.92 2758.67,1077.92 2758.67,928.23 2665.57,703.42 2717.41,703.42 2782.74,879.56 2849.65,703.42 2900.43,703.42 "/>
      </g>
     </g>
     <g id="XMLID_87_">
      <g id="XMLID_89_">
       <path id="XMLID_91_" class="fil0" d="M1549.57 2203.45c-386.31,0 -723.61,-209.55 -904.6,-521.2l-128.53 0c191.3,376.35 582.02,634.13 1033.13,634.13 451.02,0 841.83,-257.87 1033.13,-634.13l-128.53 0c-180.99,311.64 -518.29,521.2 -904.6,521.2z"/>
       <path id="XMLID_90_" class="fil0" d="M1549.57 1977.75c-253.28,0 -479.76,-114.96 -630.07,-295.51l-141.85 0c167.85,246.75 450.93,408.88 771.92,408.88 320.99,0 604.07,-162.13 771.92,-408.88l-141.85 0c-150.31,180.55 -376.79,295.51 -630.07,295.51z"/>
      </g>
      <path id="XMLID_88_" class="fil1" d="M777.65 1682.25c167.85,246.75 450.93,408.88 771.92,408.88 320.99,0 604.07,-162.13 771.92,-408.88l132.68 0c-180.9,311.64 -518.29,521.19 -904.6,521.19 -386.31,0 -723.6,-209.55 -904.6,-521.19l132.68 0z"/>
     </g>
    </g>
   </g>
   <path class="fil3" d="M1284.25 2131.13c-4.37,15.68 -11.37,26.89 -21,33.61 -9.63,6.72 -22.13,7.94 -37.49,3.66 -11.16,-3.11 -19.61,-8.45 -25.34,-16.03 -5.73,-7.58 -8.51,-16.37 -8.34,-26.36l26.92 -2.78c-0.1,4.12 0.82,8.16 2.76,12.13 1.94,3.97 5.26,6.61 9.95,7.92 6.63,1.85 11.76,0.64 15.38,-3.61 3.63,-4.25 6.62,-10.59 8.97,-19.03l30.37 -108.97 28.87 8.05 -31.06 111.41zm169.09 19.18c-1.02,8.54 -2.97,16.43 -5.87,23.66 -2.89,7.23 -6.92,13.37 -12.08,18.4 -5.16,5.03 -11.48,8.73 -18.95,11.08 -7.47,2.36 -16.29,2.93 -26.46,1.72 -10.17,-1.21 -18.57,-3.84 -25.19,-7.87 -6.62,-4.04 -11.81,-9.1 -15.56,-15.2 -3.75,-6.09 -6.15,-12.99 -7.17,-20.69 -1.03,-7.7 -1.03,-15.82 -0.01,-24.36l12.46 -104.55 30.01 3.58 -12.16 102.04c-0.6,5.03 -0.8,9.92 -0.61,14.66 0.2,4.74 1.04,8.98 2.54,12.72 1.5,3.74 3.79,6.83 6.88,9.29 3.09,2.46 7.22,3.99 12.39,4.61 5.17,0.61 9.54,0.09 13.12,-1.57 3.58,-1.66 6.54,-4.13 8.88,-7.41 2.33,-3.28 4.15,-7.2 5.46,-11.76 1.31,-4.56 2.26,-9.36 2.86,-14.39l12.16 -102.04 29.76 3.55 -12.47 104.55zm128.31 12.58c0.55,16.27 -2.76,29.06 -9.92,38.37 -7.16,9.31 -18.71,14.23 -34.66,14.76 -11.58,0.39 -21.24,-2.17 -28.99,-7.67 -7.75,-5.5 -13.04,-13.05 -15.88,-22.63l24.84 -10.75c1.14,3.96 3.23,7.53 6.28,10.74 3.05,3.2 7,4.72 11.87,4.56 6.88,-0.23 11.41,-2.92 13.59,-8.07 2.18,-5.15 3.12,-12.09 2.83,-20.84l-3.8 -113.06 29.95 -1.01 3.88 115.6zm167.29 -31.46c1.58,8.45 2.07,16.57 1.47,24.34 -0.6,7.77 -2.61,14.82 -6.03,21.17 -3.43,6.34 -8.35,11.76 -14.77,16.24 -6.42,4.48 -14.67,7.66 -24.74,9.54 -10.07,1.88 -18.87,1.88 -26.39,0.01 -7.52,-1.87 -13.99,-5.16 -19.39,-9.85 -5.4,-4.69 -9.74,-10.56 -13.03,-17.61 -3.28,-7.04 -5.71,-14.79 -7.29,-23.25l-19.34 -103.5 29.71 -5.55 18.88 101.01c0.93,4.98 2.2,9.71 3.8,14.17 1.6,4.47 3.68,8.26 6.22,11.38 2.55,3.12 5.67,5.39 9.34,6.81 3.68,1.42 8.08,1.65 13.2,0.7 5.11,-0.95 9.13,-2.76 12.05,-5.41 2.92,-2.66 5.01,-5.9 6.25,-9.72 1.25,-3.83 1.82,-8.12 1.7,-12.86 -0.12,-4.75 -0.64,-9.61 -1.57,-14.59l-18.88 -101.01 29.46 -5.51 19.34 103.5zm107.13 -34.85l20.66 58.92 -28.05 9.83 -20.66 -58.92 -75.38 -80.27 30.9 -10.83 49.28 59.88 0.56 -0.69 1.73 -77.27 30.18 -10.58 -9.23 109.93z"/>
  </g>
 </g>
</svg>
